<svg width="42" height="42" viewBox="24.5 0 40 40" fill="none" xmlns="http://www.w3.org/2000/svg">
<circle cx="25.9911" cy="25.9912" r="1.39737" transform="rotate(-90 25.9911 25.9912)" fill="#3758F9"/>
<circle cx="38.2884" cy="25.9912" r="1.39737" transform="rotate(-90 38.2884 25.9912)" fill="#3758F9"/>
<circle cx="50.5849" cy="25.9911" r="1.39737" transform="rotate(-90 50.5849 25.9911)" fill="#3758F9"/>
<circle cx="62.7213" cy="25.9911" r="1.39737" transform="rotate(-90 62.7213 25.9911)" fill="#3758F9"/>
<circle cx="25.9911" cy="13.6944" r="1.39737" transform="rotate(-90 25.9911 13.6944)" fill="#3758F9"/>
<circle cx="38.2884" cy="13.6944" r="1.39737" transform="rotate(-90 38.2884 13.6944)" fill="#3758F9"/>
<circle cx="50.5849" cy="13.6943" r="1.39737" transform="rotate(-90 50.5849 13.6943)" fill="#3758F9"/>
<circle cx="62.7213" cy="13.6943" r="1.39737" transform="rotate(-90 62.7213 13.6943)" fill="#3758F9"/>
<circle cx="25.9911" cy="38.0087" r="1.39737" transform="rotate(-90 25.9911 38.0087)" fill="#3758F9"/>
<circle cx="25.9911" cy="1.39739" r="1.39737" transform="rotate(-90 25.9911 1.39739)" fill="#3758F9"/>
<circle cx="38.2884" cy="38.0087" r="1.39737" transform="rotate(-90 38.2884 38.0087)" fill="#3758F9"/>
<circle cx="38.2884" cy="1.39739" r="1.39737" transform="rotate(-90 38.2884 1.39739)" fill="#3758F9"/>
<circle cx="50.5849" cy="38.0089" r="1.39737" transform="rotate(-90 50.5849 38.0089)" fill="#3758F9"/>
<circle cx="62.7213" cy="38.0089" r="1.39737" transform="rotate(-90 62.7213 38.0089)" fill="#3758F9"/>
<circle cx="50.5849" cy="1.39761" r="1.39737" transform="rotate(-90 50.5849 1.39761)" fill="#3758F9"/>
<circle cx="62.7213" cy="1.39761" r="1.39737" transform="rotate(-90 62.7213 1.39761)" fill="#3758F9"/>
</svg>
